<?xml version="1.0" standalone="no"?>
<!DOCTYPE svg PUBLIC "-//W3C//DTD SVG 20010904//EN"
 "http://www.w3.org/TR/2001/REC-SVG-20010904/DTD/svg10.dtd">
<svg version="1.0" xmlns="http://www.w3.org/2000/svg"
 width="200px" height="200px" viewBox="0 0 1080.000000 422.000000"
 preserveAspectRatio="xMidYMid meet">

<g transform="translate(0.000000,422.000000) scale(0.100000,-0.100000)"
fill="#000000" stroke="none">
<path d="M1493 4208 c-263 -17 -526 -107 -765 -260 -77 -49 -94 -70 -82 -102
12 -31 42 -39 74 -19 219 139 346 198 525 243 397 101 837 32 1180 -183 397
-248 668 -695 701 -1154 8 -109 11 -122 39 -135 21 -9 29 -8 46 8 20 18 21 25
14 114 -19 275 -106 533 -253 760 -323 498 -872 769 -1479 728z"/>
<path d="M465 3728 c-81 -71 -227 -272 -293 -403 -125 -252 -188 -579 -164
-850 37 -400 188 -729 462 -1006 162 -164 320 -272 528 -360 325 -139 719
-162 1059 -63 66 19 88 51 57 85 -21 23 -11 24 -194 -17 -109 -24 -146 -27
-295 -28 -229 0 -392 31 -583 110 -473 196 -817 618 -918 1129 -28 136 -25
435 4 571 59 275 183 522 361 717 39 42 71 84 71 92 0 17 -35 55 -50 55 -5 0
-26 -14 -45 -32z"/>
<path d="M1455 3749 c-573 -84 -995 -571 -995 -1149 0 -409 214 -788 563 -996
99 -59 192 -97 317 -131 85 -24 113 -26 270 -27 148 0 188 3 262 22 123 30
233 75 328 132 174 104 217 154 170 192 -12 10 -26 18 -30 18 -4 0 -40 -25
-81 -55 -137 -102 -289 -169 -452 -200 -92 -17 -277 -20 -363 -4 -482 86 -843
475 -883 953 -15 182 11 348 80 509 48 113 88 179 164 269 360 430 1000 504
1446 169 172 -130 322 -341 376 -530 23 -79 49 -102 89 -76 23 15 25 21 19 53
-10 59 -74 209 -122 291 -176 298 -472 500 -813 556 -102 16 -248 18 -345 4z"/>
<path d="M1544 3521 c-23 -10 -54 -36 -70 -57 l-29 -37 -3 -371 c-2 -204 0
-386 3 -404 8 -45 70 -107 123 -123 90 -26 195 34 221 127 14 51 15 695 1 746
-14 50 -55 97 -105 119 -51 24 -89 23 -141 0z m127 -110 l29 -29 0 -347 c0
-244 -3 -353 -12 -368 -27 -52 -80 -62 -125 -23 l-28 24 0 362 0 362 28 24
c38 32 72 31 108 -5z"/>
<path d="M1115 3191 c-94 -43 -213 -225 -261 -401 -27 -99 -25 -291 4 -394 63
-219 212 -400 407 -497 251 -123 566 -103 790 51 60 41 80 72 65 99 -15 29
-53 26 -103 -8 -63 -43 -134 -77 -217 -102 -105 -33 -263 -33 -370 0 -120 37
-206 87 -291 171 -85 84 -138 167 -177 279 -23 68 -26 91 -26 211 -1 125 2
141 30 221 34 95 105 210 160 258 43 39 85 41 119 6 37 -36 33 -74 -15 -131
-93 -112 -134 -218 -134 -354 0 -202 110 -381 290 -469 82 -40 130 -50 235
-51 380 -1 630 398 466 744 -19 40 -51 91 -71 113 -62 69 -67 120 -14 157 41
29 68 20 128 -41 108 -113 170 -276 170 -453 0 -124 -26 -228 -85 -337 -48
-88 -49 -114 -6 -128 30 -9 45 2 80 60 148 244 147 564 0 812 -51 85 -146 179
-196 193 -103 31 -210 -41 -221 -149 -6 -69 2 -92 51 -153 60 -75 73 -98 97
-167 38 -113 20 -259 -44 -359 -89 -140 -268 -222 -425 -193 -336 62 -474 449
-251 706 47 54 55 69 64 113 14 78 -30 157 -108 193 -52 23 -90 24 -141 0z"/>
<path d="M2712 2734 c-90 -24 -149 -73 -198 -164 -18 -33 -19 -70 -24 -559
l-5 -523 -45 -15 c-90 -31 -153 -91 -197 -188 -16 -36 -18 -74 -18 -360 0
-361 4 -385 73 -465 32 -38 342 -292 461 -378 25 -18 77 -43 115 -55 66 -20
90 -22 336 -22 363 0 380 5 593 195 52 47 98 93 102 102 8 23 -9 54 -34 61
-23 6 -47 -11 -182 -131 -144 -127 -145 -127 -479 -127 -261 0 -278 1 -330 22
-37 15 -126 80 -274 198 -120 97 -227 186 -237 198 -44 53 -49 95 -49 401 0
287 1 292 24 343 25 54 92 113 127 113 17 0 19 -12 21 -147 l3 -148 28 -9 c22
-8 31 -6 45 7 16 16 17 71 22 731 l5 714 31 39 c40 49 79 71 137 79 38 6 56 2
102 -21 45 -21 61 -37 85 -78 l30 -52 0 -315 c0 -185 4 -330 10 -352 14 -50
46 -73 127 -91 643 -149 809 -189 839 -203 20 -9 48 -35 62 -57 l27 -41 0
-420 c0 -411 0 -422 -21 -461 -12 -22 -31 -49 -43 -59 -23 -21 -28 -65 -9 -84
35 -35 99 15 145 114 l24 52 -3 449 -3 448 -33 52 c-34 52 -83 91 -140 111
-18 6 -133 34 -255 62 -540 124 -612 142 -619 148 -4 4 -8 158 -10 342 -3 327
-4 336 -26 378 -72 135 -209 202 -340 166z"/>
<path d="M5727 2523 c-4 -3 -7 -300 -7 -660 l0 -653 100 0 100 0 0 330 c0 360
0 360 59 423 86 94 258 102 335 17 51 -56 56 -99 56 -455 l0 -315 95 0 96 0
-3 383 -3 382 -28 60 c-35 74 -58 100 -122 133 -45 24 -61 27 -160 27 -101 0
-115 -2 -167 -28 -63 -31 -121 -91 -138 -143 -7 -19 -15 -34 -19 -34 -4 0 -5
122 -3 270 l4 270 -94 0 c-52 0 -98 -3 -101 -7z"/>
<path d="M8970 2500 c-214 -34 -342 -152 -385 -355 -20 -97 -21 -502 0 -598
48 -227 194 -348 438 -364 221 -14 400 61 483 202 62 107 67 138 72 425 3 217
1 277 -12 333 -43 184 -149 298 -319 343 -68 18 -208 25 -277 14z m253 -190
c77 -36 127 -109 146 -215 6 -32 11 -145 11 -250 0 -259 -18 -342 -89 -418
-53 -58 -95 -72 -216 -72 -121 0 -163 14 -216 72 -76 81 -92 163 -87 453 3
203 6 230 26 280 38 95 94 147 187 171 56 15 186 3 238 -21z"/>
<path d="M9828 1845 l-3 -635 99 0 99 0 -6 530 c-3 292 -2 530 2 530 4 0 88
-181 186 -402 99 -222 205 -459 235 -528 l56 -125 147 -3 147 -3 0 636 0 635
-96 0 -95 0 2 -525 c1 -290 0 -528 -3 -530 -2 -2 -109 234 -238 525 l-235 530
-147 0 -148 0 -2 -635z"/>
<path d="M7945 2436 l-90 -11 -3 -127 -3 -128 -79 0 -80 0 0 -75 0 -74 78 -3
77 -3 5 -315 5 -315 27 -57 c44 -95 134 -138 289 -138 75 0 196 23 223 43 21
16 39 170 19 163 -71 -28 -134 -38 -207 -34 -160 8 -168 27 -164 388 l3 265
177 3 177 2 6 48 c3 26 8 59 10 74 l4 28 -190 2 -191 3 1 138 c1 75 1 136 -1
136 -2 -1 -43 -7 -93 -13z"/>
<path d="M7085 2204 c-11 -2 -45 -9 -75 -15 -30 -6 -88 -25 -128 -41 -79 -33
-77 -29 -87 -136 l-6 -63 38 19 c21 11 76 32 122 46 94 30 224 37 299 17 62
-17 108 -67 123 -136 7 -30 10 -57 8 -60 -3 -2 -82 -16 -176 -30 -362 -54
-441 -107 -451 -306 -7 -142 36 -231 135 -280 42 -21 63 -24 163 -24 96 0 123
4 160 21 68 32 107 69 140 137 l29 62 1 -102 0 -103 96 0 95 0 -3 373 -3 372
-28 60 c-44 94 -96 139 -198 169 -54 17 -216 29 -254 20z m295 -601 c0 -112
-43 -183 -136 -225 -131 -58 -268 -24 -294 73 -24 87 17 159 104 184 57 17
306 54 319 48 4 -2 7 -38 7 -80z"/>
<path d="M5105 2187 c-113 -30 -188 -87 -234 -177 -45 -91 -53 -149 -49 -348
5 -196 15 -244 70 -327 63 -95 163 -143 318 -152 104 -6 188 9 270 50 l45 22
8 79 c4 43 6 81 3 83 -2 3 -15 -2 -28 -11 -76 -50 -244 -72 -341 -45 -53 14
-100 60 -128 121 -21 48 -24 67 -24 203 0 93 5 166 13 193 16 53 63 107 116
134 85 43 240 31 344 -27 l44 -25 -7 78 c-8 89 -16 99 -103 133 -71 27 -240
35 -317 16z"/>
</g>
</svg>
