<?xml version="1.0" standalone="no"?>
<!DOCTYPE svg PUBLIC "-//W3C//DTD SVG 20010904//EN"
 "http://www.w3.org/TR/2001/REC-SVG-20010904/DTD/svg10.dtd">
<svg version="1.0" xmlns="http://www.w3.org/2000/svg"
 width="500.000000pt" height="500.000000pt" viewBox="0 0 500.000000 500.000000"
 preserveAspectRatio="xMidYMid meet">

<g transform="translate(0.000000,500.000000) scale(0.100000,-0.100000)"
fill="#000000" stroke="none">
<path d="M1715 4854 c-193 -29 -366 -84 -540 -170 -133 -66 -275 -161 -286
-191 -9 -24 22 -73 45 -73 7 0 59 30 116 66 184 119 380 199 598 246 95 20
133 23 342 23 204 -1 248 -4 337 -23 763 -166 1301 -775 1362 -1544 8 -98 12
-115 31 -130 29 -23 36 -23 64 6 22 21 23 30 19 92 -29 446 -200 843 -497
1152 -61 63 -147 143 -191 178 -251 195 -545 321 -863 369 -122 19 -414 18
-537 -1z"/>
<path d="M707 4349 c-32 -19 -169 -183 -239 -288 -309 -463 -388 -1046 -212
-1581 45 -138 157 -361 242 -480 86 -122 309 -345 432 -433 112 -80 358 -204
485 -246 306 -99 624 -117 945 -51 130 27 167 38 185 56 23 23 19 61 -9 79
-22 15 -31 14 -122 -9 -172 -42 -242 -51 -429 -51 -242 0 -425 34 -629 116
-629 252 -1039 827 -1081 1514 -27 435 147 913 452 1237 67 71 75 96 43 128
-22 22 -37 24 -63 9z"/>
<path d="M1780 4346 c-489 -87 -881 -420 -1034 -876 -48 -143 -66 -258 -66
-415 0 -219 43 -403 136 -588 264 -523 827 -804 1403 -701 185 33 388 121 542
236 88 64 108 93 90 127 -24 44 -54 38 -148 -33 -147 -111 -342 -195 -523
-227 -96 -17 -294 -17 -390 0 -258 45 -471 158 -660 351 -157 160 -250 322
-307 537 -34 129 -43 362 -19 498 132 762 937 1200 1651 898 316 -133 579
-425 674 -750 18 -60 26 -74 46 -79 72 -18 89 24 52 135 -65 198 -171 368
-326 521 -58 58 -139 127 -179 153 -142 94 -310 166 -477 203 -97 21 -369 27
-465 10z"/>
<path d="M1905 4091 c-51 -23 -101 -79 -114 -128 -15 -52 -15 -795 0 -848 24
-89 102 -148 194 -148 92 0 170 59 194 148 15 53 15 796 0 848 -22 79 -111
147 -194 147 -22 0 -58 -9 -80 -19z m124 -106 c50 -26 52 -39 49 -463 l-3
-392 -26 -26 c-36 -36 -92 -36 -128 0 l-26 26 -3 395 c-2 344 -1 399 13 425
25 48 74 62 124 35z"/>
<path d="M1413 3716 c-98 -47 -233 -249 -283 -426 -28 -98 -37 -273 -20 -377
60 -377 357 -673 734 -734 103 -16 280 -7 376 21 149 42 331 149 338 199 4 27
-24 61 -51 61 -10 0 -40 -15 -66 -34 -212 -155 -514 -190 -756 -89 -163 68
-309 204 -390 363 -129 255 -108 567 55 797 63 90 99 123 143 130 31 5 40 1
67 -25 45 -46 42 -87 -14 -152 -97 -114 -149 -251 -149 -395 0 -171 51 -293
174 -417 58 -59 94 -86 150 -113 241 -114 494 -72 680 114 120 120 173 250
171 423 -1 140 -45 258 -141 378 -63 78 -67 115 -21 162 46 46 90 36 153 -34
137 -150 206 -347 194 -553 -8 -133 -26 -199 -92 -329 -43 -85 -52 -112 -45
-127 16 -28 47 -42 69 -30 42 23 115 166 153 299 18 63 22 103 23 222 0 177
-15 241 -91 395 -111 226 -239 326 -365 284 -94 -32 -143 -106 -137 -205 4
-65 12 -81 98 -189 101 -127 123 -328 51 -480 -58 -123 -147 -206 -276 -255
-86 -33 -224 -34 -318 -1 -163 56 -278 190 -314 369 -29 140 12 287 112 402
63 73 78 110 73 182 -10 143 -154 226 -285 164z"/>
<path d="M3233 3210 c-95 -20 -188 -93 -233 -185 l-25 -50 -5 -588 -5 -588
-52 -18 c-98 -33 -170 -99 -216 -198 -22 -47 -22 -56 -22 -428 0 -374 0 -381
23 -429 12 -28 34 -65 49 -84 14 -19 137 -123 274 -233 366 -292 344 -284 764
-284 291 0 302 1 374 24 93 31 149 68 295 200 120 107 135 131 100 165 -33 33
-60 19 -186 -94 -79 -71 -146 -122 -188 -143 l-65 -32 -313 -3 c-417 -4 -369
-21 -697 241 -237 189 -270 219 -298 272 -21 39 -22 50 -22 400 0 350 1 361
22 400 32 59 112 125 153 125 6 0 10 -55 10 -159 0 -173 5 -191 55 -191 57 0
55 -25 55 823 0 850 -2 817 58 880 89 95 220 98 312 8 77 -74 80 -92 80 -513
l0 -358 33 -36 33 -36 495 -114 c272 -63 506 -119 521 -125 39 -16 95 -81 107
-126 7 -24 11 -196 11 -469 0 -481 -2 -498 -65 -572 -45 -52 -46 -101 -3 -116
36 -13 70 11 114 79 63 100 65 120 62 637 l-3 463 -28 57 c-34 69 -101 131
-165 152 -26 9 -252 63 -502 121 -250 57 -465 107 -477 110 l-23 5 0 348 c0
391 -5 429 -66 519 -77 113 -212 170 -341 143z"/>
</g>
</svg>
